<?xml version="1.0" encoding="utf-8"?>
<!-- Generator: Adobe Illustrator 27.1.0, SVG Export Plug-In . SVG Version: 6.00 Build 0)  -->
<svg version="1.1" xmlns="http://www.w3.org/2000/svg" xmlns:xlink="http://www.w3.org/1999/xlink" x="0px" y="0px"
	 viewBox="0 0 545 293" style="enable-background:new 0 0 545 293;" xml:space="preserve">
<style type="text/css">
	.st0{fill:#00AEEF;}
</style>
<g id="Layer_1">
	<g>
		<path class="st0" d="M289.79,167.16c-1.19,1.19-2.35,2.05-3.47,2.57c-1.12,0.53-2.53,0.78-4.21,0.78c-2.51,0-4.5-0.68-5.97-2.05
			c-1.48-1.36-2.21-3.16-2.21-5.37c0-1.52,0.21-2.81,0.64-3.89c0.43-1.08,1-1.96,1.71-2.68c0.71-0.7,1.52-1.27,2.41-1.71
			c0.9-0.42,1.91-0.8,3.03-1.12c0.45-0.14,1.14-0.31,2.08-0.55c1.98-0.53,3.42-1.04,4.32-1.54c0.89-0.49,1.35-1.28,1.35-2.37
			c0-0.79-0.25-1.47-0.76-2.03c-0.5-0.57-1.18-0.84-2.05-0.84c-1.38,0-2.27,0.32-2.67,0.96c-0.39,0.65-0.64,1.67-0.75,3.05v0.3
			h-8.92c0-1.82,0.28-3.31,0.82-4.49c0.54-1.17,1.33-2.13,2.38-2.89c2.05-1.46,5.01-2.18,8.86-2.18c4.37,0,7.46,0.65,9.28,1.93
			c1.81,1.28,2.71,3.47,2.71,6.53v16.98c0,0.82,0.25,1.84,0.73,3.06h-8.68L289.79,167.16z M289.45,156.16
			c-0.53,0.24-1.18,0.51-1.96,0.84c-1.23,0.5-2.07,0.9-2.53,1.19c-0.63,0.41-1.14,0.88-1.51,1.44c-0.38,0.55-0.57,1.27-0.57,2.12
			c0,0.9,0.29,1.61,0.87,2.16c0.59,0.54,1.4,0.81,2.44,0.81c1.2,0,2.03-0.41,2.5-1.24c0.47-0.82,0.72-1.81,0.76-2.97V156.16z"/>
		<path class="st0" d="M312.67,141.91v4.21h0.11c0.53-1.55,1.36-2.77,2.5-3.67c1.14-0.9,2.61-1.34,4.4-1.34v8.91
			c-0.79-0.14-1.68-0.2-2.69-0.2c-1.31,0-2.24,0.19-2.78,0.55c-0.54,0.36-0.85,1.08-0.93,2.18v17.08h-8.91v-27.71H312.67z"/>
		<path class="st0" d="M322.76,147.6v-5.69h3.53v-7.92h8.92v7.92h4.27v5.69h-4.27v14.6c0,0.73,0.17,1.22,0.5,1.51
			c0.34,0.28,0.82,0.41,1.46,0.41c0.29-0.03,0.57-0.06,0.84-0.06c0.26-0.02,0.74-0.03,1.46-0.03v5.54
			c-2.29,0.29-4.19,0.44-5.73,0.44c-4.97,0-7.46-2.13-7.46-6.39V147.6H322.76z"/>
		<path class="st0" d="M368,141.91v3.21h0.11c0.71-1.19,1.68-2.14,2.92-2.85c1.23-0.71,2.48-1.1,3.75-1.17
			c1.53,0,2.9,0.33,4.09,0.99c1.2,0.66,2.04,1.55,2.52,2.68h0.11c1.61-2.44,3.78-3.67,6.51-3.67c2.24,0,4.13,0.51,5.66,1.54
			c1.53,1.02,2.3,2.44,2.3,4.26v22.72h-8.92v-19.8c-0.07-0.69-0.29-1.25-0.64-1.66c-0.35-0.4-0.92-0.61-1.71-0.61
			c-1.6,0.03-2.41,0.79-2.41,2.27v19.8h-8.91v-19.8c-0.19-0.76-0.42-1.33-0.7-1.71c-0.28-0.38-0.76-0.57-1.43-0.57
			c-1.65,0-2.52,0.76-2.64,2.27v19.8h-8.92v-27.71H368z"/>
		<path class="st0" d="M402.83,139.18v-6.68h8.91v6.68H402.83z M402.83,169.63v-27.71h8.91v27.71H402.83z"/>
		<path class="st0" d="M433.66,167.16c-1.19,1.19-2.35,2.05-3.47,2.57c-1.12,0.53-2.52,0.78-4.21,0.78c-2.5,0-4.49-0.68-5.97-2.05
			c-1.47-1.36-2.21-3.16-2.21-5.37c0-1.52,0.22-2.81,0.65-3.89c0.42-1.08,1-1.96,1.71-2.68c0.71-0.7,1.51-1.27,2.41-1.71
			c0.89-0.42,1.9-0.8,3.02-1.12c0.45-0.14,1.14-0.31,2.08-0.55c1.98-0.53,3.42-1.04,4.32-1.54c0.9-0.49,1.34-1.28,1.34-2.37
			c0-0.79-0.25-1.47-0.76-2.03c-0.51-0.57-1.19-0.84-2.05-0.84c-1.39,0-2.27,0.32-2.66,0.96c-0.4,0.65-0.64,1.67-0.76,3.05v0.3
			h-8.92c0-1.82,0.27-3.31,0.81-4.49c0.55-1.17,1.34-2.13,2.39-2.89c2.05-1.46,5.01-2.18,8.86-2.18c4.37,0,7.46,0.65,9.28,1.93
			c1.81,1.28,2.72,3.47,2.72,6.53v16.98c0,0.82,0.25,1.84,0.73,3.06h-8.69L433.66,167.16z M433.33,156.16
			c-0.53,0.24-1.18,0.51-1.97,0.84c-1.24,0.5-2.07,0.9-2.52,1.19c-0.64,0.41-1.14,0.88-1.52,1.44c-0.37,0.55-0.56,1.27-0.56,2.12
			c0,0.9,0.29,1.61,0.87,2.16c0.58,0.54,1.4,0.81,2.44,0.81c1.19,0,2.02-0.41,2.49-1.24c0.47-0.82,0.72-1.81,0.76-2.97V156.16z"/>
		<path class="st0" d="M456.32,141.91v3.21h0.1c0.72-1.19,1.69-2.14,2.92-2.85c1.23-0.71,2.48-1.1,3.76-1.17
			c1.53,0,2.89,0.33,4.09,0.99c1.2,0.66,2.04,1.55,2.52,2.68h0.11c1.61-2.44,3.78-3.67,6.5-3.67c2.25,0,4.14,0.51,5.67,1.54
			c1.53,1.02,2.3,2.44,2.3,4.26v22.72h-8.92v-19.8c-0.07-0.69-0.29-1.25-0.64-1.66c-0.36-0.4-0.93-0.61-1.72-0.61
			c-1.6,0.03-2.4,0.79-2.4,2.27v19.8h-8.92v-19.8c-0.18-0.76-0.42-1.33-0.7-1.71c-0.29-0.38-0.75-0.57-1.44-0.57
			c-1.64,0-2.52,0.76-2.63,2.27v19.8h-8.92v-27.71H456.32z"/>
		<path class="st0" d="M491.14,139.18v-6.68h8.91v6.68H491.14z M491.14,169.63v-27.71h8.91v27.71H491.14z"/>
	</g>
	<g>
		<path class="st0" d="M84.68,88.92c-0.12,1.69-0.24,3.51-0.36,5.2c-0.85,16.56-6.41,29.26-25.27,29.26
			c-27.81,0-29.62-17.65-29.62-41.83V68.61c0.73-23.09,2.54-40.26,29.62-40.26c15.11,0.24,23.57,7.98,24.79,23.45
			c0.24,1.93,0.36,3.75,0.36,5.68v1.21H67.51c-0.72-5.8-0.12-16.69-8.46-16.69c-11.49,0-12.21,11.73-12.21,19.47v28.53
			c0,7.5,0.61,19.71,12.21,19.71c9.31,0,8.22-14.99,8.58-20.8H84.68z"/>
		<path class="st0" d="M103.42,68.61c0.72-23.09,2.54-40.26,29.62-40.26c27.08,0,28.9,17.17,29.62,40.26v12.94
			c0,24.18-1.81,41.83-29.62,41.83c-27.81,0-29.62-17.65-29.62-41.83V68.61z M120.83,90.01c0,7.5,0.6,19.71,12.21,19.71
			c12.09,0,12.21-12.45,12.21-21.16V64.14c0-7.74-0.36-22.13-12.21-22.13c-11.49,0-12.21,11.73-12.21,19.47v3.39V90.01z"/>
		<path class="st0" d="M224.69,30.53h16.93v90.68h-17.65l-13.18-32.28c-4.47-10.76-8.1-21.76-12.09-36.03h-0.24
			c0.6,7.5,1.33,16.68,1.81,25.87c0.48,9.07,0.84,18.13,0.84,25.39v17.04h-16.92V30.53h17.53l13.18,33.01
			c4.35,10.52,7.98,21.28,12.09,36.03h0.24c-0.61-8.22-1.21-17.05-1.7-25.75c-0.48-8.7-0.85-17.41-0.85-25.51V30.53z"/>
		<path class="st0" d="M257.95,30.53h56.46v13.3H294.7v77.38h-16.93V43.83h-19.83V30.53z"/>
		<path class="st0" d="M330.13,121.2V30.53h47.64v13.3h-30.71v22.85h28.29v13.3h-28.29v27.93h30.71v13.3H330.13z"/>
		<path class="st0" d="M454.79,121.2h-19.35l-9.68-22.12c-1.57-3.63-2.78-7.5-3.5-11.49h-0.24c-0.73,6.05-3.39,11.49-5.8,16.93
			l-7.5,16.68h-18.5l22.25-45.94l-21.4-44.74h18.98l9.19,20.55c1.57,3.75,3.14,7.25,3.27,11.37h0.36
			c0.48-5.92,3.26-11.24,5.56-16.56l6.53-15.36h19.1l-21.77,44.74L454.79,121.2z"/>
		<path class="st0" d="M464.22,30.53h56.46v13.3h-19.71v77.38h-16.93V43.83h-19.82V30.53z"/>
	</g>
</g>
<g id="Layer_2">
	<g>
		<path d="M28.56,202.91h11.4c8.96,0,15,5.76,15,14c0,8.24-6.04,14-15,14h-11.4V202.91z M39.8,228.35c7.44,0,12.24-4.72,12.24-11.44
			c0-6.72-4.8-11.44-12.24-11.44h-8.28v22.88H39.8z"/>
		<path d="M81.52,228.35v2.56h-19.8v-28h19.2v2.56H64.68v9.96h14.48v2.52H64.68v10.4H81.52z"/>
		<path d="M85.96,216.91c0-8.2,6.24-14.24,14.68-14.24c4.08,0,7.76,1.36,10.24,4.08l-1.88,1.88c-2.28-2.32-5.08-3.32-8.28-3.32
			c-6.76,0-11.84,4.96-11.84,11.6c0,6.64,5.08,11.6,11.84,11.6c3.2,0,6-1,8.28-3.36l1.88,1.88c-2.48,2.72-6.16,4.12-10.28,4.12
			C92.2,231.15,85.96,225.11,85.96,216.91z"/>
		<path d="M137.12,228.35v2.56h-19.8v-28h19.2v2.56h-16.24v9.96h14.48v2.52h-14.48v10.4H137.12z"/>
		<path d="M173.27,202.91v28h-2.84v-22.4l-11,18.84h-1.4l-11-18.72v22.28h-2.84v-28h2.44l12.16,20.76l12.04-20.76H173.27z"/>
		<path d="M205.91,223.43c0,4.76-3.52,7.48-10.52,7.48h-12.88v-28h12.08c6.24,0,9.84,2.64,9.84,7.2c0,3.2-1.72,5.32-4.28,6.36
			C203.75,217.27,205.91,219.63,205.91,223.43z M185.48,205.35v10.16h8.92c4.48,0,7.08-1.72,7.08-5.08s-2.6-5.08-7.08-5.08H185.48z
			 M202.95,223.19c0-3.64-2.68-5.24-7.6-5.24h-9.88v10.52h9.88C200.27,228.47,202.95,226.87,202.95,223.19z"/>
		<path d="M232.59,228.35v2.56h-19.8v-28h19.2v2.56h-16.24v9.96h14.48v2.52h-14.48v10.4H232.59z"/>
		<path d="M258.79,230.9l-6.4-9c-0.72,0.08-1.44,0.12-2.24,0.12h-7.52v8.88h-2.96v-28h10.48c7.12,0,11.44,3.6,11.44,9.6
			c0,4.4-2.32,7.48-6.4,8.8l6.84,9.6H258.79z M258.63,212.51c0-4.48-2.96-7.04-8.56-7.04h-7.44v14.04h7.44
			C255.67,219.51,258.63,216.91,258.63,212.51z"/>
		<path d="M295.83,222.67c0,4.76-3.32,8.48-10.16,8.48c-4.04,0-7.88-1.4-10.04-3.6l1.4-2.28c1.8,1.88,5,3.24,8.6,3.24
			c4.76,0,7.28-2.32,7.28-5.72c0-3.6-2.24-5.84-9.36-5.84h-5.96l1.44-14.04h15.32v2.56h-12.8l-0.96,8.92h3.6
			C292.63,214.39,295.83,217.71,295.83,222.67z"/>
		<path d="M310.52,218.83h10.48v2.48h-10.48V218.83z"/>
		<path d="M343.95,202.91v28h-2.88v-25.44h-6.6v-2.56H343.95z"/>
		<path d="M350.75,216.91c0-8.92,4.68-14.24,11.16-14.24c6.48,0,11.2,5.32,11.2,14.24c0,8.92-4.72,14.24-11.2,14.24
			C355.43,231.15,350.75,225.83,350.75,216.91z M370.15,216.91c0-7.48-3.36-11.6-8.24-11.6c-4.88,0-8.24,4.12-8.24,11.6
			c0,7.48,3.36,11.6,8.24,11.6C366.79,228.51,370.15,224.39,370.15,216.91z"/>
		<path d="M390.43,201.23h2.64v37.43h-2.64V201.23z"/>
		<path d="M429.59,228.35v2.56h-19.64v-2.04l11.64-11.4c3.16-3.12,3.76-5,3.76-6.92c0-3.24-2.28-5.24-6.56-5.24
			c-3.28,0-5.8,1-7.64,3.12l-2.04-1.76c2.16-2.56,5.64-4,9.92-4c5.68,0,9.28,2.88,9.28,7.56c0,2.68-0.84,5.08-4.6,8.76l-9.52,9.36
			H429.59z"/>
		<path d="M433.15,216.91c0-8.92,4.68-14.24,11.16-14.24c6.48,0,11.2,5.32,11.2,14.24c0,8.92-4.72,14.24-11.2,14.24
			C437.83,231.15,433.15,225.83,433.15,216.91z M452.55,216.91c0-7.48-3.36-11.6-8.24-11.6c-4.88,0-8.24,4.12-8.24,11.6
			c0,7.48,3.36,11.6,8.24,11.6C449.19,228.51,452.55,224.39,452.55,216.91z"/>
		<path d="M478.79,228.35v2.56h-19.64v-2.04l11.64-11.4c3.16-3.12,3.76-5,3.76-6.92c0-3.24-2.28-5.24-6.56-5.24
			c-3.28,0-5.8,1-7.64,3.12l-2.04-1.76c2.16-2.56,5.64-4,9.92-4c5.68,0,9.28,2.88,9.28,7.56c0,2.68-0.84,5.08-4.6,8.76l-9.52,9.36
			H478.79z"/>
		<path d="M501.03,222.87c0,4.68-3.4,8.28-10.16,8.28c-4.04,0-7.92-1.4-10.08-3.6l1.4-2.28c1.8,1.88,5.04,3.24,8.68,3.24
			c4.64,0,7.2-2.16,7.2-5.64c0-3.36-2.36-5.56-7.56-5.56h-2v-2.12l7.76-9.72h-14.32v-2.56h18v2.04l-7.92,9.96
			C498.03,215.23,501.03,218.39,501.03,222.87z"/>
	</g>
	<g>
		<path d="M50.33,256.78l-9.92,22.4h-2.34l-9.92-22.4h2.56l8.58,19.46l8.64-19.46H50.33z"/>
		<path d="M54.97,256.78h2.37v22.4h-2.37V256.78z"/>
		<path d="M83.58,264.46c0,4.77-3.46,7.65-9.15,7.65h-6.02v7.07h-2.37v-22.4h8.38C80.12,256.78,83.58,259.66,83.58,264.46z
			 M81.21,264.46c0-3.58-2.37-5.63-6.85-5.63h-5.95v11.2h5.95C78.84,270.03,81.21,267.98,81.21,264.46z"/>
		<path d="M117.75,264.46c0,4.77-3.46,7.65-9.15,7.65h-6.02v7.07h-2.37v-22.4h8.38C114.29,256.78,117.75,259.66,117.75,264.46z
			 M115.38,264.46c0-3.58-2.37-5.63-6.85-5.63h-5.95v11.2h5.95C113.01,270.03,115.38,267.98,115.38,264.46z"/>
		<path d="M139.57,279.18l-5.12-7.2c-0.58,0.06-1.15,0.1-1.79,0.1h-6.02v7.1h-2.37v-22.4h8.38c5.7,0,9.15,2.88,9.15,7.68
			c0,3.52-1.86,5.98-5.12,7.04l5.47,7.68H139.57z M139.45,264.46c0-3.58-2.37-5.63-6.85-5.63h-5.95v11.23h5.95
			C137.08,270.06,139.45,267.98,139.45,264.46z"/>
		<path d="M164.66,277.13v2.05h-15.84v-22.4h15.36v2.05h-12.99v7.97h11.58v2.02h-11.58v8.32H164.66z"/>
		<path d="M189.94,256.78l-9.92,22.4h-2.34l-9.92-22.4h2.56l8.58,19.46l8.64-19.46H189.94z"/>
		<path d="M194.58,256.78h2.37v22.4h-2.37V256.78z"/>
		<path d="M221.49,277.13v2.05h-15.84v-22.4h15.36v2.05h-12.99v7.97h11.58v2.02h-11.58v8.32H221.49z"/>
		<path d="M258.9,256.78l-7.55,22.4h-2.5l-6.56-19.1l-6.59,19.1h-2.46l-7.55-22.4h2.43l6.46,19.26l6.69-19.26h2.21l6.59,19.36
			l6.56-19.36H258.9z"/>
		<path d="M274.9,256.78h9.12c7.17,0,12,4.61,12,11.2s-4.83,11.2-12,11.2h-9.12V256.78z M283.89,277.13c5.95,0,9.79-3.78,9.79-9.15
			s-3.84-9.15-9.79-9.15h-6.62v18.3H283.89z"/>
		<path d="M318.58,277.13v2.05h-15.84v-22.4h15.36v2.05h-12.99v7.97h11.58v2.02h-11.58v8.32H318.58z"/>
		<path d="M323.45,267.98c0-6.56,4.99-11.39,11.74-11.39c3.26,0,6.21,1.09,8.19,3.26l-1.5,1.5c-1.82-1.86-4.06-2.66-6.62-2.66
			c-5.41,0-9.47,3.97-9.47,9.28s4.06,9.28,9.47,9.28c2.56,0,4.8-0.8,6.62-2.69l1.5,1.5c-1.98,2.18-4.93,3.3-8.22,3.3
			C328.44,279.37,323.45,274.54,323.45,267.98z"/>
		<path d="M365.69,277.13v2.05h-15.84v-22.4h15.36v2.05h-12.99v7.97h11.58v2.02h-11.58v8.32H365.69z"/>
		<path d="M395.93,256.78v22.4h-2.27v-17.92l-8.8,15.07h-1.12l-8.8-14.97v17.82h-2.27v-22.4h1.95l9.73,16.61l9.63-16.61H395.93z"/>
		<path d="M423.35,273.2c0,3.81-2.82,5.98-8.42,5.98h-10.3v-22.4h9.66c4.99,0,7.87,2.11,7.87,5.76c0,2.56-1.38,4.26-3.42,5.09
			C421.62,268.27,423.35,270.16,423.35,273.2z M407,258.73v8.13h7.14c3.58,0,5.66-1.38,5.66-4.06s-2.08-4.06-5.66-4.06H407z
			 M420.98,273c0-2.91-2.14-4.19-6.08-4.19H407v8.42h7.9C418.84,277.23,420.98,275.95,420.98,273z"/>
		<path d="M446,277.13v2.05h-15.84v-22.4h15.36v2.05h-12.99v7.97h11.58v2.02h-11.58v8.32H446z"/>
		<path d="M468.28,279.18l-5.12-7.2c-0.58,0.06-1.15,0.1-1.79,0.1h-6.02v7.1h-2.37v-22.4h8.38c5.7,0,9.15,2.88,9.15,7.68
			c0,3.52-1.86,5.98-5.12,7.04l5.47,7.68H468.28z M468.15,264.46c0-3.58-2.37-5.63-6.85-5.63h-5.95v11.23h5.95
			C465.78,270.06,468.15,267.98,468.15,264.46z"/>
		<path d="M500.53,272.59c0,3.81-2.66,6.78-8.13,6.78c-3.23,0-6.3-1.12-8.03-2.88l1.12-1.82c1.44,1.5,4,2.59,6.88,2.59
			c3.81,0,5.82-1.86,5.82-4.58c0-2.88-1.79-4.67-7.49-4.67h-4.77l1.15-11.23h12.25v2.05h-10.24l-0.77,7.14h2.88
			C497.97,265.97,500.53,268.62,500.53,272.59z"/>
	</g>
</g>
</svg>
