<?xml version="1.0" encoding="UTF-8"?> <svg xmlns="http://www.w3.org/2000/svg" width="656.78" height="200.4" viewBox="0 0 656.78 200.4"><path d="M259.21,114.75v-.06a11.07,11.07,0,0,1,11.27-11.31,11.39,11.39,0,0,1,8.56,3.41l-2.47,2.84a8.71,8.71,0,0,0-6.12-2.72c-4.15,0-7.22,3.44-7.22,7.72v.06c0,4.28,3,7.75,7.22,7.75,2.69,0,4.4-1.06,6.28-2.81l2.47,2.5a11.29,11.29,0,0,1-8.87,3.87A11,11,0,0,1,259.21,114.75Z" fill="#231f20"></path><path d="M292.47,114.75v-.06a11.43,11.43,0,0,1,22.86-.06v.06a11.43,11.43,0,0,1-22.86.06Zm18.83,0v-.06a7.49,7.49,0,0,0-7.43-7.78,7.39,7.39,0,0,0-7.37,7.72v.06a7.46,7.46,0,0,0,7.43,7.75A7.36,7.36,0,0,0,311.3,114.75Z" fill="#231f20"></path><path d="M330.83,103.76h3.56l11.71,15.12V103.76h3.78v21.86h-3.22l-12.05-15.55v15.55h-3.78Z" fill="#231f20"></path><path d="M371.71,107.32h-6.93v-3.56h17.74v3.56h-6.94v18.3h-3.87Z" fill="#231f20"></path><path d="M397.42,103.76h16.21v3.43H401.26v5.69h11v3.44h-11v5.87h12.52v3.43H397.42Z" fill="#231f20"></path><path d="M429.18,103.76h4.09l6.66,10.34,6.65-10.34h4.09v21.86h-3.84V109.94l-6.9,10.31h-.13L433,110v15.61h-3.78Z" fill="#231f20"></path><path d="M467.13,103.76h8.62c5.12,0,8.31,2.9,8.31,7.31v.06c0,4.9-3.94,7.47-8.75,7.47H471v7h-3.84Zm8.31,11.37c2.9,0,4.72-1.63,4.72-3.91v-.06c0-2.56-1.85-3.9-4.72-3.9H471v7.87Z" fill="#231f20"></path><path d="M497.87,114.75v-.06a11.43,11.43,0,0,1,22.86-.06v.06A11.21,11.21,0,0,1,509.27,126,11.1,11.1,0,0,1,497.87,114.75Zm18.83,0v-.06a7.49,7.49,0,0,0-7.43-7.78,7.39,7.39,0,0,0-7.38,7.72v.06a7.47,7.47,0,0,0,7.44,7.75A7.36,7.36,0,0,0,516.7,114.75Z" fill="#231f20"></path><path d="M536.22,103.76H546a8.81,8.81,0,0,1,6.31,2.19,6.61,6.61,0,0,1,1.81,4.71v.06c0,3.6-2.16,5.75-5.19,6.63l5.9,8.27h-4.55L544.87,118h-4.81v7.62h-3.84Zm9.46,10.84c2.75,0,4.5-1.44,4.5-3.66v-.06c0-2.34-1.68-3.62-4.53-3.62h-5.59v7.34Z" fill="#231f20"></path><path d="M577.39,103.6H581l9.62,22h-4.06l-2.22-5.28H574l-2.25,5.28h-3.93Zm5.49,13.34-3.77-8.75-3.75,8.75Z" fill="#231f20"></path><path d="M605.15,103.76h9.75a8.79,8.79,0,0,1,6.31,2.19,6.61,6.61,0,0,1,1.81,4.71v.06c0,3.6-2.15,5.75-5.18,6.63l5.9,8.27h-4.56L613.81,118H609v7.62h-3.85Zm9.47,10.84c2.75,0,4.5-1.44,4.5-3.66v-.06c0-2.34-1.69-3.62-4.53-3.62H609v7.34Z" fill="#231f20"></path><path d="M644.23,117l-8.69-13.24h4.56l6.09,9.65,6.19-9.65h4.4l-8.68,13.15v8.71h-3.87Z" fill="#231f20"></path><polygon points="242.41 113.8 232.69 113.8 232.69 104.08 230.58 104.08 230.58 113.8 220.87 113.8 220.87 115.91 230.58 115.91 230.58 125.62 232.69 125.62 232.69 115.91 242.41 115.91 242.41 113.8" fill="#231f20"></polygon><polygon points="46.12 138.7 50.01 138.7 48.06 133.95 46.12 138.7" fill="#231f20"></polygon><polygon points="131.72 138.7 135.61 138.7 133.66 133.95 131.72 138.7" fill="#231f20"></polygon><path d="M104.08,138.78h-3.72V142h3.83c1.42,0,2.28-.5,2.28-1.59v0C106.47,139.39,105.74,138.78,104.08,138.78Z" fill="#231f20"></path><path d="M105.65,134.56v-.05c0-1-.75-1.5-2.11-1.5h-3.18v3.1h3C104.75,136.11,105.65,135.65,105.65,134.56Z" fill="#231f20"></path><path d="M100.2,0A100.2,100.2,0,1,0,200.4,100.2,100.2,100.2,0,0,0,100.2,0Zm28.15,53.56h36.87v4.89H149.47v42H144.1v-42H128.35Zm-40.71,0h20.18c5.76,0,10.39,1.74,13.34,4.69a13,13,0,0,1,3.62,9.25v.14c0,7.77-5.36,12.33-12.74,13.67l14.41,19.18H120L106.34,82.25H92.94v18.24h-5.3Zm-31.12-.34h5l21.38,47.27H77.17l-5.5-12.41H46.13l-5.56,12.41H35.14ZM40.25,135.29c0,3.39-2.63,5.15-5.92,5.15H31.88v4.39H28.66V130.18h6c3.5,0,5.61,2.07,5.61,5.07Zm12.25,9.54-1.34-3.28H45l-1.34,3.28H40.34l6.28-14.75h3l6.28,14.75Zm16.58,0H58.55V130.18h3.23V141.9h7.3Zm17.5,0h-3.2v-9.56l-4.13,6.26h-.08l-4.08-6.2v9.5H71.93V130.18H75.4l3.85,6.2,3.86-6.2h3.47Zm23.09-4c0,2.68-2.18,4-5.48,4h-7V130.18H104a5.29,5.29,0,0,1,3.83,1.3,3.36,3.36,0,0,1,1,2.49v0a3.38,3.38,0,0,1-1.92,3.16c1.69.65,2.74,1.64,2.74,3.6Zm14.24,4H112.75V130.18h11v2.87H116v3h6.91v2.87H116V142h8Zm14.19,0-1.34-3.28h-6.19l-1.34,3.28h-3.29l6.28-14.75h3l6.28,14.75Zm12,.25a7.39,7.39,0,0,1-7.52-7.53v0a7.45,7.45,0,0,1,7.64-7.58,7.57,7.57,0,0,1,5.78,2.26l-2,2.37a5.41,5.41,0,0,0-3.75-1.66,4.34,4.34,0,0,0-4.25,4.57v0a4.35,4.35,0,0,0,4.25,4.6A5.31,5.31,0,0,0,154,140.4l2.05,2.07A7.47,7.47,0,0,1,150.08,145.08Zm21.39-.25h-3.22V139H162.3v5.88h-3.22V130.18h3.22V136h5.95v-5.8h3.22Zm9.63-28.5v.46H19.31v-2.94H181.1v2.48Z" fill="#231f20"></path><path d="M119.42,67.84V67.7c0-5.76-4.43-9.25-12-9.25H92.94v19h14.41C114.39,77.49,119.42,73.87,119.42,67.84Z" fill="#231f20"></path><polygon points="58.93 59.39 48.21 83.26 69.59 83.26 58.93 59.39" fill="#231f20"></polygon><path d="M34.37,133.09H31.88v4.48h2.55A2.27,2.27,0,0,0,37,135.35v0C37,133.87,36,133.09,34.37,133.09Z" fill="#231f20"></path></svg> 